<svg width="29" height="35" viewBox="0 0 29 35" fill="none" xmlns="http://www.w3.org/2000/svg">
<circle cx="16.9315" cy="17.5509" r="10.4782" stroke="black" stroke-width="2.61954"/>
<path d="M17.9791 33.5301C15.8807 33.5301 13.8028 33.1168 11.8642 32.3137C9.92547 31.5107 8.16394 30.3337 6.68014 28.8499C5.19633 27.3661 4.01932 25.6046 3.21629 23.6659C2.41326 21.7272 1.99995 19.6493 1.99995 17.5509C1.99995 15.4525 2.41326 13.3746 3.21629 11.4359C4.01932 9.49725 5.19633 7.73572 6.68014 6.25192C8.16394 4.76811 9.92548 3.5911 11.8642 2.78807C13.8028 1.98504 15.8807 1.57172 17.9791 1.57172" stroke="#4F56D3" stroke-width="2.61954"/>
<path d="M17.7172 23.0519C19.1067 23.0519 20.4393 22.4724 21.4218 21.4407C22.4043 20.4091 22.9563 19.0099 22.9563 17.5509C22.9563 16.0919 22.4043 14.6927 21.4218 13.6611C20.4393 12.6295 19.1067 12.0499 17.7172 12.0499" stroke="#4F56D3" stroke-width="2.61954"/>
</svg>
