<svg width="163" height="35" viewBox="0 0 163 35" fill="none" xmlns="http://www.w3.org/2000/svg">
<path d="M43.2893 28.2305C41.8677 28.2305 40.5422 28.0096 39.3128 27.5678C38.1026 27.1259 37.0845 26.4248 36.2584 25.4643C35.4516 24.5038 34.9426 23.2647 34.7312 21.7472H38.9382C39.1111 22.4003 39.4281 22.9286 39.8891 23.332C40.3502 23.7162 40.8976 23.9947 41.5316 24.1676C42.1847 24.3405 42.8667 24.427 43.5774 24.427C44.1153 24.427 44.6436 24.3597 45.1622 24.2252C45.6809 24.0908 46.1035 23.8603 46.4301 23.5337C46.7759 23.2071 46.9488 22.7653 46.9488 22.2082C46.9488 21.7856 46.8527 21.4398 46.6606 21.1709C46.4877 20.9019 46.2284 20.6906 45.8826 20.5369C45.556 20.364 45.1526 20.2104 44.6724 20.0759C44.269 19.9606 43.8464 19.8646 43.4045 19.7877C42.9819 19.7109 42.5593 19.6149 42.1367 19.4996C41.7333 19.3843 41.3395 19.2499 40.9553 19.0962C40.2253 18.9041 39.5241 18.6736 38.8518 18.4046C38.1794 18.1165 37.5839 17.7611 37.0652 17.3385C36.5466 16.8967 36.1336 16.3492 35.8262 15.696C35.5381 15.0429 35.394 14.2553 35.394 13.3332C35.394 12.3343 35.5573 11.4891 35.8838 10.7975C36.2296 10.1059 36.6811 9.53924 37.2381 9.09741C37.8144 8.63638 38.4484 8.28099 39.1399 8.03126C39.8507 7.78153 40.5615 7.60864 41.2722 7.51259C41.983 7.41654 42.6553 7.36852 43.2893 7.36852C44.6148 7.36852 45.8058 7.59904 46.8623 8.06008C47.9189 8.52112 48.7833 9.21267 49.4557 10.1348C50.128 11.0568 50.5122 12.219 50.6083 13.6214H46.603C46.5261 13.0451 46.3148 12.5744 45.9691 12.2094C45.6233 11.8444 45.1815 11.5755 44.6436 11.4026C44.1249 11.2297 43.539 11.1433 42.8859 11.1433C42.4632 11.1433 42.0502 11.1817 41.6468 11.2585C41.2434 11.3354 40.8784 11.4602 40.5519 11.6331C40.2445 11.7868 39.9948 11.9981 39.8027 12.2671C39.6298 12.536 39.5433 12.8626 39.5433 13.2468C39.5433 13.631 39.649 13.9671 39.8603 14.2553C40.0716 14.5242 40.379 14.7643 40.7824 14.9757C41.205 15.1678 41.6948 15.3503 42.2519 15.5231C42.8282 15.7152 43.4333 15.8689 44.0673 15.9842C44.7012 16.0994 45.3063 16.2531 45.8826 16.4452C46.6126 16.6373 47.2945 16.8678 47.9285 17.1368C48.5624 17.3865 49.1195 17.7131 49.5997 18.1165C50.08 18.5007 50.4546 19.0001 50.7235 19.6149C50.9925 20.2104 51.1269 20.9499 51.1269 21.8336C51.1269 23.0054 50.906 24.0043 50.4642 24.8304C50.0416 25.6372 49.4557 26.2903 48.7065 26.7898C47.9765 27.2892 47.1409 27.6542 46.1996 27.8847C45.2583 28.1153 44.2882 28.2305 43.2893 28.2305ZM54.0417 28V12.8145H58.0758V28H54.0417ZM56.0588 11.2873C55.3096 11.2873 54.7045 11.0664 54.2434 10.6246C53.7824 10.1636 53.5519 9.57766 53.5519 8.86689C53.5519 8.11771 53.792 7.51259 54.2723 7.05155C54.7525 6.59052 55.3576 6.36 56.0876 6.36C56.7599 6.36 57.3362 6.59052 57.8165 7.05155C58.316 7.49338 58.5657 8.08889 58.5657 8.83808C58.5657 9.56806 58.3256 10.1636 57.8453 10.6246C57.3843 11.0664 56.7888 11.2873 56.0588 11.2873ZM67.4688 28.2017C65.7591 28.2017 64.4913 27.7215 63.6652 26.761C62.8584 25.8005 62.455 24.4846 62.455 22.8133V16.4164H60.1786V12.8145H62.455V8.72282H66.4891V12.8145H71.0995V16.4164H66.4891V21.9777C66.4891 22.4771 66.5467 22.9094 66.662 23.2744C66.7965 23.6393 67.0078 23.9275 67.2959 24.1388C67.6033 24.3309 68.0163 24.427 68.535 24.427C68.996 24.427 69.3802 24.3597 69.6876 24.2252C70.0141 24.0716 70.2831 23.9083 70.4944 23.7354L71.7622 26.8474C71.3588 27.174 70.9074 27.4429 70.4079 27.6542C69.9277 27.8463 69.4378 27.9808 68.9384 28.0576C68.4389 28.1537 67.9491 28.2017 67.4688 28.2017ZM80.3743 28.2017C78.7799 28.2017 77.4256 27.8847 76.3114 27.2508C75.1972 26.6169 74.3424 25.7236 73.7469 24.571C73.1514 23.3992 72.8536 22.0353 72.8536 20.4793C72.8536 18.9041 73.161 17.5306 73.7757 16.3588C74.3904 15.1678 75.2548 14.2361 76.369 13.5637C77.5024 12.8914 78.8375 12.5552 80.3743 12.5552C81.5269 12.5552 82.5354 12.7473 83.3999 13.1315C84.2835 13.5157 85.0231 14.0536 85.6186 14.7451C86.2333 15.4367 86.6848 16.2435 86.9729 17.1656C87.2803 18.0685 87.4243 19.0482 87.4051 20.1047C87.4051 20.3737 87.3955 20.633 87.3763 20.8827C87.3571 21.1324 87.3187 21.3822 87.2611 21.6319H76.8589C76.9165 22.2082 77.0798 22.7365 77.3487 23.2167C77.6177 23.697 77.9923 24.0812 78.4725 24.3693C78.972 24.6383 79.5867 24.7727 80.3167 24.7727C80.7969 24.7727 81.2387 24.7247 81.6421 24.6287C82.0456 24.5134 82.3913 24.3405 82.6795 24.11C82.9676 23.8795 83.1693 23.6105 83.2846 23.3032H87.2611C87.0113 24.4366 86.5407 25.3682 85.8491 26.0982C85.1768 26.8282 84.3604 27.3661 83.3999 27.7119C82.4394 28.0384 81.4308 28.2017 80.3743 28.2017ZM76.9453 18.808H83.5439C83.5247 18.2894 83.3903 17.8091 83.1405 17.3673C82.91 16.9063 82.5546 16.5413 82.0744 16.2723C81.6133 15.9842 81.0178 15.8401 80.2878 15.8401C79.5579 15.8401 78.9432 15.9842 78.4437 16.2723C77.9634 16.5605 77.5985 16.9351 77.3487 17.3961C77.1182 17.8379 76.9837 18.3086 76.9453 18.808ZM88.4481 28L96.401 7.59904H101.011L108.878 28H104.44L103.173 24.5134H94.1535L92.8856 28H88.4481ZM95.4789 20.7963H101.876L98.7062 11.9789L95.4789 20.7963ZM117.376 28.2017C115.148 28.2017 113.429 27.635 112.219 26.5016C111.028 25.349 110.432 23.6201 110.432 21.3149V12.8145H114.466V21.0268C114.466 21.7183 114.562 22.3331 114.754 22.8709C114.966 23.3896 115.283 23.8026 115.705 24.11C116.147 24.4173 116.714 24.571 117.405 24.571C118.154 24.571 118.731 24.4077 119.134 24.0812C119.538 23.7546 119.816 23.3224 119.97 22.7845C120.123 22.2274 120.2 21.6415 120.2 21.0268V12.8145H124.206V21.3149C124.206 23.7162 123.601 25.4643 122.39 26.5593C121.199 27.6542 119.528 28.2017 117.376 28.2017ZM133.598 28.2017C132.061 28.2017 130.784 27.8559 129.766 27.1644C128.767 26.4536 128.018 25.5123 127.518 24.3405C127.019 23.1495 126.769 21.8336 126.769 20.3929C126.769 18.8753 127.038 17.5306 127.576 16.3588C128.114 15.1678 128.911 14.2361 129.967 13.5637C131.024 12.8914 132.34 12.5552 133.915 12.5552C134.453 12.5552 134.981 12.6224 135.5 12.7569C136.038 12.8722 136.528 13.0547 136.969 13.3044C137.431 13.5349 137.824 13.8423 138.151 14.2265V7.59904H142.185V28H138.266L138.209 26.2999C137.863 26.7417 137.44 27.1067 136.941 27.3949C136.46 27.6638 135.942 27.8655 135.385 28C134.828 28.1345 134.232 28.2017 133.598 28.2017ZM134.405 24.571C135.269 24.571 135.971 24.3693 136.508 23.9659C137.066 23.5625 137.479 23.0438 137.747 22.4099C138.016 21.776 138.151 21.094 138.151 20.364C138.151 19.6149 138.016 18.9329 137.747 18.3182C137.498 17.6843 137.094 17.1848 136.537 16.8198C135.999 16.4356 135.289 16.2435 134.405 16.2435C133.521 16.2435 132.811 16.4452 132.273 16.8486C131.735 17.252 131.351 17.7803 131.12 18.4334C130.909 19.0674 130.803 19.7493 130.803 20.4793C130.803 21.0172 130.861 21.5359 130.976 22.0353C131.11 22.5156 131.322 22.9478 131.61 23.332C131.898 23.7162 132.273 24.0235 132.734 24.2541C133.195 24.4654 133.752 24.571 134.405 24.571ZM145.355 28V12.8145H149.389V28H145.355ZM147.372 11.2873C146.622 11.2873 146.017 11.0664 145.556 10.6246C145.095 10.1636 144.865 9.57766 144.865 8.86689C144.865 8.11771 145.105 7.51259 145.585 7.05155C146.065 6.59052 146.671 6.36 147.4 6.36C148.073 6.36 148.649 6.59052 149.129 7.05155C149.629 7.49338 149.879 8.08889 149.879 8.83808C149.879 9.56806 149.638 10.1636 149.158 10.6246C148.697 11.0664 148.102 11.2873 147.372 11.2873ZM159.473 28C158.205 28 157.139 27.8463 156.275 27.539C155.43 27.2316 154.786 26.7129 154.344 25.983C153.922 25.2338 153.71 24.2156 153.71 22.9286V16.4164H151.463V12.8145H153.71V8.75163H157.744V12.8145H161.058V16.4164H157.744V22.3523C157.744 22.9862 157.86 23.4857 158.09 23.8507C158.321 24.2156 158.839 24.3981 159.646 24.3981H160.914V28H159.473Z" fill="#161919"/>
<circle cx="16.9315" cy="17.5509" r="10.4782" stroke="black" stroke-width="2.61954"/>
<path d="M17.9791 33.5301C15.8807 33.5301 13.8028 33.1168 11.8642 32.3137C9.92547 31.5107 8.16394 30.3337 6.68014 28.8499C5.19633 27.3661 4.01932 25.6046 3.21629 23.6659C2.41326 21.7272 1.99995 19.6493 1.99995 17.5509C1.99995 15.4525 2.41326 13.3746 3.21629 11.4359C4.01932 9.49725 5.19633 7.73572 6.68014 6.25192C8.16394 4.76811 9.92548 3.5911 11.8642 2.78807C13.8028 1.98504 15.8807 1.57172 17.9791 1.57172" stroke="#4F56D3" stroke-width="2.61954"/>
<path d="M17.7172 23.0519C19.1067 23.0519 20.4393 22.4724 21.4218 21.4407C22.4043 20.4091 22.9563 19.0099 22.9563 17.5509C22.9563 16.0919 22.4043 14.6927 21.4218 13.6611C20.4393 12.6295 19.1067 12.0499 17.7172 12.0499" stroke="#4F56D3" stroke-width="2.61954"/>
</svg>
