<svg width="118" height="40" viewBox="0 0 118 40" fill="none" xmlns="http://www.w3.org/2000/svg">
<mask id="mask0_5_1546" style="mask-type:luminance" maskUnits="userSpaceOnUse" x="1" y="14" width="70" height="23">
<path d="M37.2023 21.353C37.1624 24.5568 40.0085 26.3448 42.1525 27.4078C44.3554 28.4985 45.0952 29.1979 45.0868 30.1731C45.07 31.666 43.3296 32.3247 41.7005 32.3504C38.8587 32.3953 37.2065 31.5697 35.8928 30.9452L34.8691 35.8194C36.1871 36.4375 38.6275 36.9765 41.1582 37C47.0984 37 50.985 34.0165 51.006 29.3904C51.0291 23.5195 43.0248 23.1944 43.0795 20.5702C43.0984 19.7746 43.8446 18.9255 45.4799 18.7095C46.2892 18.6004 48.5236 18.517 51.0565 19.704L52.0507 14.9881C50.6886 14.4834 48.9377 14 46.7579 14C41.1667 14 37.2339 17.0242 37.2023 21.353ZM61.6042 14.4064C60.5195 14.4064 59.6052 15.0501 59.1974 16.0382L50.7117 36.6535H56.6477L57.829 33.3321H65.0829L65.7682 36.6535H71L66.4345 14.4064H61.6042ZM62.4344 20.4162L64.1476 28.7701H59.4559L62.4344 20.4162ZM30.0052 14.4064L25.3262 36.6535H30.9826L35.6595 14.4064H30.0052ZM21.6372 14.4064L15.7496 29.5486L13.368 16.6734C13.0885 15.2362 11.9849 14.4064 10.7595 14.4064H1.13454L1 15.0523C2.97586 15.4886 5.22076 16.1922 6.58074 16.945C7.41313 17.4049 7.65064 17.807 7.9239 18.8999L12.4348 36.6535H18.4128L27.5774 14.4064H21.6372Z" fill="white"/>
</mask>
<g mask="url(#mask0_5_1546)">
<path d="M-6 16.7713L63.2467 -9L79 34.2287L9.75403 60" fill="white"/>
</g>
<path d="M94 15H105V33H94V15Z" fill="#FF5F00"/>
<path d="M94.7507 24.4984C94.7494 22.7571 95.1312 21.0383 95.8674 19.4721C96.6036 17.9059 97.6748 16.5333 99 15.4581C97.3587 14.1248 95.3877 13.2957 93.3121 13.0656C91.2365 12.8355 89.1402 13.2136 87.2627 14.1567C85.3852 15.0998 83.8022 16.5699 82.6947 18.399C81.5873 20.228 81 22.3423 81 24.5C81 26.6578 81.5873 28.772 82.6947 30.601C83.8022 32.4301 85.3852 33.9002 87.2627 34.8433C89.1402 35.7864 91.2365 36.1645 93.3121 35.9344C95.3877 35.7043 97.3587 34.8752 99 33.5419C97.6744 32.4664 96.603 31.0933 95.8668 29.5265C95.1305 27.9597 94.7489 26.2402 94.7507 24.4984V24.4984Z" fill="#EB001B"/>
<path d="M116.23 31.4542V31.0779H116.397V31H116V31.0779H116.157V31.4543L116.23 31.4542ZM117 31.4542V31.0001H116.88L116.74 31.3245L116.6 31H116.48V31.4542H116.567V31.1103L116.697 31.4056H116.787L116.917 31.1103V31.4542H117Z" fill="#F79E1B"/>
<path d="M117 24.5016C117 26.6593 116.413 28.7734 115.305 30.6023C114.197 32.4312 112.614 33.9011 110.737 34.844C108.859 35.7869 106.763 36.1647 104.687 35.9342C102.612 35.7038 100.641 34.8744 99 33.5408C100.325 32.4649 101.395 31.092 102.132 29.5259C102.868 27.9598 103.251 26.2413 103.251 24.5C103.251 22.7587 102.868 21.0402 102.132 19.4741C101.395 17.908 100.325 16.5351 99 15.4592C100.641 14.1256 102.612 13.2962 104.687 13.0658C106.763 12.8353 108.859 13.2131 110.737 14.156C112.614 15.0989 114.197 16.5688 115.305 18.3977C116.413 20.2266 117 22.3408 117 24.4984V24.5016Z" fill="#F79E1B"/>
</svg>
