<svg width="24" height="24" viewBox="0 0 24 24" fill="none" xmlns="http://www.w3.org/2000/svg">
<path d="M22.2855 0H1.71404C0.856899 0 -0.000244141 0.857143 -0.000244141 1.71429V22.2857C-0.000244141 23.3143 0.856899 24 1.71404 24H22.2855C23.314 24 23.9998 23.3143 23.9998 22.2857V1.71429C23.9998 0.685714 23.1426 0 22.2855 0ZM7.19976 20.4H3.59976V9.08571H7.19976V20.4ZM5.31404 7.37143C4.11404 7.37143 3.2569 6.51429 3.2569 5.31429C3.2569 4.11429 4.11404 3.25714 5.31404 3.25714C6.51404 3.25714 7.37118 4.11429 7.37118 5.31429C7.37118 6.51429 6.51404 7.37143 5.31404 7.37143ZM20.3998 20.4H16.9712V14.9143C16.9712 13.5429 16.9712 11.8286 15.0855 11.8286C13.1998 11.8286 13.0283 13.2 13.0283 14.7429V20.4H9.42833V9.08571H12.8569V10.6286C13.3712 9.77143 14.5712 8.74286 16.2855 8.74286C19.8855 8.74286 20.5712 11.1429 20.5712 14.2286V20.4H20.3998Z" fill="#EEECF4"/>
</svg>
