<svg width="24" height="24" viewBox="0 0 24 24" fill="none" xmlns="http://www.w3.org/2000/svg">
<g clip-path="url(#clip0_17_401)">
<path fill-rule="evenodd" clip-rule="evenodd" d="M12 0C18.6274 0 24 5.37259 24 12C24 17.9896 19.6118 22.954 13.875 23.8542V15.4688H16.6711L17.2031 12H13.875V9.74899C13.875 8.80005 14.3399 7.875 15.8306 7.875H17.3438V4.92188C17.3438 4.92188 17.2579 4.90723 17.1087 4.88525C16.6609 4.81934 15.6422 4.6875 14.6576 4.6875C14.315 4.6875 13.9872 4.71346 13.6758 4.76475C11.4966 5.12384 10.125 6.72466 10.125 9.35623V12H7.07812V15.4688H10.125V23.8542C4.38821 22.954 0 17.9896 0 12C0 5.37259 5.37259 0 12 0Z" fill="#EEECF4"/>
</g>
<defs>
<clipPath id="clip0_17_401">
<rect width="24" height="24" fill="white"/>
</clipPath>
</defs>
</svg>
