<svg width="35" height="24" viewBox="0 0 35 24" fill="none" xmlns="http://www.w3.org/2000/svg">
<path fill-rule="evenodd" clip-rule="evenodd" d="M29.6269 1.84535C30.9553 2.20095 31.9993 3.24488 32.3548 4.57329C32.9974 6.97865 33 12.0002 33 12.0002C33 12.0002 33 17.0218 32.3548 19.4271C31.9993 20.7555 30.9553 21.7995 29.6269 22.155C27.2216 22.8002 17.5721 22.8002 17.5721 22.8002C17.5721 22.8002 7.92275 22.8002 5.51738 22.155C4.18898 21.7995 3.14504 20.7555 2.78944 19.4271C2.14429 17.0218 2.14429 12.0002 2.14429 12.0002C2.14429 12.0002 2.14429 6.97865 2.78944 4.57329C3.14504 3.24488 4.18898 2.20095 5.51738 1.84535C7.92275 1.2002 17.5721 1.2002 17.5721 1.2002C17.5721 1.2002 27.2216 1.2002 29.6269 1.84535ZM22.5003 12.0009L14.4841 16.6287V7.37305L22.5003 12.0009Z" fill="#EEECF4"/>
</svg>
