<svg width="31" height="38" viewBox="0 0 31 38" fill="none" xmlns="http://www.w3.org/2000/svg">
<circle cx="18.027" cy="18.8388" r="11.2471" stroke="black" stroke-width="2.81177"/>
<path d="M19.1519 35.9906C16.8995 35.9906 14.6691 35.547 12.5882 34.685C10.5072 33.823 8.61641 32.5597 7.02372 30.967C5.43103 29.3743 4.16764 27.4835 3.30568 25.4025C2.44373 23.3216 2.00008 21.0912 2.00008 18.8388C2.00008 16.5864 2.44373 14.3561 3.30568 12.2751C4.16764 10.1942 5.43103 8.30338 7.02372 6.7107C8.61641 5.11801 10.5072 3.85462 12.5882 2.99266C14.6691 2.1307 16.8995 1.68706 19.1519 1.68706" stroke="#4F56D3" stroke-width="2.81177"/>
<path d="M18.8706 24.7435C20.3621 24.7435 21.7924 24.1214 22.847 23.0141C23.9017 21.9067 24.4941 20.4049 24.4941 18.8388C24.4941 17.2728 23.9017 15.7709 22.847 14.6636C21.7924 13.5562 20.3621 12.9341 18.8706 12.9341" stroke="#4F56D3" stroke-width="2.81177"/>
</svg>
